# xmcd CD database file
#
# Track frame offsets:
#	157
#	19800
#	32710
#	60475
#	76832
#	86740
#	99347
#	132527
#	150920
#	179065
#	194747
#	209757
#
# Disc length: 3026 seconds
#
# Revision: 0
# Processed by: cddbd v1.5.1PL0 Copyright (c) Steve Scherf et al.
# Submitted via: CDex 1.50
#
DISCID=a30bd00c
DTITLE=Dino Mehrstein - Point de Départ
DYEAR=2002
DGENRE=Jazz
TTITLE0=Point de départ
TTITLE1=Sortie de Route
TTITLE2=Bluesette
TTITLE3=Le Fort de Michel
TTITLE4=Lucio
TTITLE5=I Love You
TTITLE6=Dinology
TTITLE7=September
TTITLE8=Nova Bossa
TTITLE9=Lady be Good
TTITLE10=Cherokee
TTITLE11=Point de Départ
EXTD=YEAR: 2002
EXTT0=
EXTT1=
EXTT2=
EXTT3=
EXTT4=
EXTT5=
EXTT6=
EXTT7=
EXTT8=
EXTT9=
EXTT10=
EXTT11=
PLAYORDER=
